<svg width="540" height="513" viewBox="0 0 540 513" fill="none" xmlns="http://www.w3.org/2000/svg">
<path d="M483.038 210.992C503.89 345.81 522.745 426.846 539.605 454.098C538.891 454.163 538.502 453.839 538.438 453.125L407.049 503.885C397.386 492.529 389.637 478.481 383.803 461.741C374.459 469.783 363.622 477.241 351.294 484.114C323.912 499.547 293.45 508.783 259.908 511.822C227.793 514.732 196.524 511.09 166.1 500.896C136.39 490.637 109.471 475.448 85.343 455.33C35.4008 412.367 7.42265 357.701 1.40836 291.331C-4.54126 225.675 13.1868 167.227 54.5925 115.987C76.6579 89.5237 100.408 69.7434 125.843 56.6458C153.939 41.1486 184.044 31.9449 216.159 29.0347C249.701 25.9953 281.327 29.605 311.037 39.864C311.75 39.7993 312.497 40.0915 313.275 40.7405C314.702 40.6111 315.805 40.871 316.583 41.5199L314.255 15.8284L455.365 0.882812C459.31 44.4157 468.534 114.452 483.038 210.992Z" fill="white"/>
<path d="M226.209 135.945C234.436 135.945 241.106 129.274 241.106 121.045C241.106 112.816 234.436 106.145 226.209 106.145C217.981 106.145 211.312 112.816 211.312 121.045C211.312 129.274 217.981 135.945 226.209 135.945Z" fill="#191919"/>
<path d="M226.209 466.587C234.436 466.587 241.106 459.916 241.106 451.687C241.106 443.458 234.436 436.787 226.209 436.787C217.981 436.787 211.312 443.458 211.312 451.687C211.312 459.916 217.981 466.587 226.209 466.587Z" fill="#191919"/>
<path d="M61.0027 301.183C69.2302 301.183 75.8998 294.512 75.8998 286.283C75.8998 278.054 69.2302 271.383 61.0027 271.383C52.7752 271.383 46.1056 278.054 46.1056 286.283C46.1056 294.512 52.7752 301.183 61.0027 301.183Z" fill="#191919"/>
<path d="M391.586 301.183C399.814 301.183 406.483 294.512 406.483 286.283C406.483 278.054 399.814 271.383 391.586 271.383C383.359 271.383 376.689 278.054 376.689 286.283C376.689 294.512 383.359 301.183 391.586 301.183Z" fill="#191919"/>
<path d="M219.33 251.257L329.993 166.911L262.805 288.099L219.33 251.257Z" fill="#191919"/>
<path d="M296.104 262.763C304.833 294.926 285.837 328.08 253.68 336.807C221.523 345.534 188.372 326.532 179.643 294.369C170.914 262.206 189.91 229.052 222.067 220.325C254.225 211.598 287.375 230.6 296.104 262.763Z" fill="#191919"/>
</svg>
